<?xml version="1.0" encoding="UTF-8"?>
<svg id="Layer_2" data-name="Layer 2" xmlns="http://www.w3.org/2000/svg" xmlns:xlink="http://www.w3.org/1999/xlink" viewBox="0 0 1725.44 543.72">
  <defs>
    <style>
      .cls-1 {
        fill: #ff85a2;
      }

      .cls-2 {
        fill: #4e2306;
      }

      .cls-3 {
        letter-spacing: 0em;
      }

      .cls-3, .cls-4, .cls-5, .cls-6, .cls-7 {
        fill: #fff;
      }

      .cls-3, .cls-6, .cls-7 {
        font-family: OptimaLTStd-Black, 'Optima LT Std';
        font-size: 43.57px;
        font-weight: 800;
      }

      .cls-8 {
        fill: #965f1d;
      }

      .cls-9 {
        stroke: #774213;
        stroke-miterlimit: 10;
        stroke-width: 3px;
      }

      .cls-9, .cls-10 {
        fill: none;
      }

      .cls-11, .cls-5, .cls-12 {
        opacity: 0;
      }

      .cls-11, .cls-13 {
        fill: #ad7931;
      }

      .cls-14 {
        fill: #774213;
      }

      .cls-15 {
        letter-spacing: 0em;
      }

      .cls-16 {
        opacity: .53;
      }

      .cls-17 {
        letter-spacing: 0em;
      }

      .cls-18 {
        fill: #864e16;
      }

      .cls-19 {
        letter-spacing: 0em;
      }

      .cls-20 {
        letter-spacing: 0em;
      }

      .cls-21 {
        letter-spacing: -.03em;
      }

      .cls-22 {
        letter-spacing: -.01em;
      }

      .cls-23 {
        fill: #00563f;
      }

      .cls-24 {
        letter-spacing: -.04em;
      }

      .cls-6, .cls-25 {
        letter-spacing: 0em;
      }

      .cls-26 {
        letter-spacing: -.06em;
      }

      .cls-27 {
        letter-spacing: 0em;
      }

      .cls-28 {
        letter-spacing: -.02em;
      }

      .cls-29 {
        letter-spacing: 0em;
      }

      .cls-30 {
        letter-spacing: .03em;
      }

      .cls-31 {
        fill: #502507;
      }

      .cls-32 {
        fill: #132e54;
      }

      .cls-33 {
        clip-path: url(#clippath);
      }

      .cls-34 {
        fill: #8d1436;
      }

      .cls-35 {
        fill: #ffb61c;
      }
    </style>
    <clipPath id="clippath">
      <circle class="cls-10" cx="892.59" cy="250.31" r="129.09"/>
    </clipPath>
  </defs>
  <g id="Layer_1-2" data-name="Layer 1">
    <g class="cls-12">
      <path class="cls-4" d="M894.86,381.12c-73.09,0-132.55-59.46-132.55-132.55s59.46-132.55,132.55-132.55,132.55,59.46,132.55,132.55-59.46,132.55-132.55,132.55Z"/>
      <path class="cls-2" d="M894.86,119.51c71.27,0,129.05,57.78,129.05,129.05s-57.78,129.05-129.05,129.05-129.05-57.78-129.05-129.05,57.78-129.05,129.05-129.05M894.86,112.51c-36.34,0-70.51,14.15-96.21,39.85-25.7,25.7-39.85,59.86-39.85,96.2s14.15,70.51,39.85,96.2c25.7,25.7,59.86,39.85,96.21,39.85s70.51-14.15,96.2-39.85c25.7-25.7,39.85-59.86,39.85-96.2s-14.15-70.51-39.85-96.2c-25.7-25.7-59.86-39.85-96.2-39.85h0Z"/>
    </g>
    <g class="cls-16">
      <path class="cls-13" d="M894.86,113.33c74.69,0,135.23,60.55,135.23,135.23s-60.55,135.23-135.23,135.23-135.23-60.55-135.23-135.23,60.55-135.23,135.23-135.23M894.86,102.33c-39.06,0-75.78,15.21-103.4,42.83-27.62,27.62-42.83,64.34-42.83,103.4s15.21,75.78,42.83,103.4c27.62,27.62,64.34,42.83,103.4,42.83s75.78-15.21,103.4-42.83c27.62-27.62,42.83-64.34,42.83-103.4s-15.21-75.78-42.83-103.4c-27.62-27.62-64.34-42.83-103.4-42.83h0Z"/>
    </g>
    <g>
      <g>
        <g id="_Radial_Repeat_" data-name="&amp;lt;Radial Repeat&amp;gt;">
          <circle class="cls-32" cx="899.76" cy="298.02" r="130.52"/>
        </g>
        <g id="_Radial_Repeat_-2" data-name="&amp;lt;Radial Repeat&amp;gt;">
          <circle class="cls-35" cx="848.37" cy="272.13" r="130.52"/>
        </g>
        <g id="_Radial_Repeat_-3" data-name="&amp;lt;Radial Repeat&amp;gt;">
          <circle class="cls-23" cx="858.02" cy="212.92" r="130.52"/>
        </g>
        <g id="_Radial_Repeat_-4" data-name="&amp;lt;Radial Repeat&amp;gt;">
          <circle class="cls-34" cx="917.57" cy="207.54" r="131.29"/>
        </g>
        <g id="_Radial_Repeat_-5" data-name="&amp;lt;Radial Repeat&amp;gt;">
          <circle class="cls-1" cx="941.37" cy="258.63" r="130.52"/>
        </g>
        <g id="_Radial_Repeat_-6" data-name="&amp;lt;Radial Repeat&amp;gt;">
          <circle class="cls-32" cx="1018.84" cy="425.01" r="33.57"/>
        </g>
        <g id="_Radial_Repeat_-7" data-name="&amp;lt;Radial Repeat&amp;gt;">
          <circle class="cls-35" cx="767.81" cy="425.83" r="33.57"/>
        </g>
        <g id="_Radial_Repeat_-8" data-name="&amp;lt;Radial Repeat&amp;gt;">
          <circle class="cls-23" cx="687.16" cy="183.62" r="33.57"/>
        </g>
        <g id="_Radial_Repeat_-9" data-name="&amp;lt;Radial Repeat&amp;gt;">
          <circle class="cls-34" cx="897.43" cy="33.57" r="33.57"/>
        </g>
        <g id="_Radial_Repeat_-10" data-name="&amp;lt;Radial Repeat&amp;gt;">
          <circle class="cls-1" cx="1096.08" cy="181.61" r="33.57"/>
        </g>
        <circle class="cls-11" cx="892.59" cy="250.31" r="146.19"/>
      </g>
      <g>
        <circle class="cls-13" cx="892.59" cy="250.31" r="146.19"/>
        <circle class="cls-31" cx="892.59" cy="250.31" r="136.03"/>
        <circle class="cls-8" cx="892.59" cy="250.31" r="129.09"/>
        <circle class="cls-18" cx="892.59" cy="250.29" r="94.83"/>
        <circle class="cls-14" cx="892.75" cy="250.72" r="73.17"/>
        <g class="cls-33">
          <g>
            <line class="cls-9" x1="858.08" y1="148.73" x2="867.53" y2="173.92"/>
            <line class="cls-9" x1="898.69" y1="168.81" x2="873.51" y2="178.26"/>
            <line class="cls-9" x1="861.21" y1="178.04" x2="836.02" y2="187.49"/>
            <line class="cls-9" x1="828.92" y1="194.99" x2="803.74" y2="204.44"/>
            <line class="cls-9" x1="758.17" y1="221.55" x2="732.98" y2="231"/>
            <line class="cls-9" x1="791.44" y1="204.22" x2="766.26" y2="213.67"/>
            <line class="cls-9" x1="968.54" y1="142.59" x2="943.36" y2="152.04"/>
            <line class="cls-9" x1="931.05" y1="151.82" x2="905.87" y2="161.27"/>
            <line class="cls-9" x1="1001.81" y1="125.26" x2="976.63" y2="134.71"/>
            <line class="cls-9" x1="814.62" y1="236.3" x2="839.8" y2="226.85"/>
            <line class="cls-9" x1="744.81" y1="262.5" x2="769.99" y2="253.05"/>
            <line class="cls-9" x1="852.1" y1="227.08" x2="877.28" y2="217.62"/>
            <line class="cls-9" x1="884.38" y1="210.12" x2="909.57" y2="200.67"/>
            <line class="cls-9" x1="921.87" y1="200.89" x2="947.05" y2="191.44"/>
            <line class="cls-9" x1="991.64" y1="174.71" x2="1016.82" y2="165.25"/>
            <line class="cls-9" x1="955.18" y1="183.55" x2="980.36" y2="174.1"/>
            <line class="cls-9" x1="782.26" y1="253.29" x2="807.44" y2="243.84"/>
            <line class="cls-9" x1="841.46" y1="307.83" x2="866.64" y2="298.38"/>
            <line class="cls-9" x1="771.65" y1="334.03" x2="796.84" y2="324.58"/>
            <line class="cls-9" x1="878.95" y1="298.61" x2="904.13" y2="289.15"/>
            <line class="cls-9" x1="911.23" y1="281.65" x2="936.41" y2="272.2"/>
            <line class="cls-9" x1="948.72" y1="272.42" x2="973.9" y2="262.97"/>
            <line class="cls-9" x1="1018.49" y1="246.24" x2="1043.67" y2="236.78"/>
            <line class="cls-9" x1="982.03" y1="255.08" x2="1007.21" y2="245.63"/>
            <line class="cls-9" x1="809.1" y1="324.82" x2="834.28" y2="315.37"/>
            <line class="cls-9" x1="868.01" y1="378.57" x2="893.19" y2="369.12"/>
            <line class="cls-9" x1="798.2" y1="404.77" x2="823.39" y2="395.32"/>
            <line class="cls-9" x1="905.5" y1="369.35" x2="930.68" y2="359.9"/>
            <line class="cls-9" x1="937.78" y1="352.39" x2="962.96" y2="342.94"/>
            <line class="cls-9" x1="975.27" y1="343.16" x2="1000.45" y2="333.71"/>
            <line class="cls-9" x1="1045.04" y1="316.98" x2="1070.22" y2="307.53"/>
            <line class="cls-9" x1="1008.58" y1="325.82" x2="1033.76" y2="316.37"/>
            <line class="cls-9" x1="835.65" y1="395.56" x2="860.83" y2="386.11"/>
            <line class="cls-9" x1="868.1" y1="185.07" x2="877.56" y2="210.25"/>
            <line class="cls-9" x1="788.31" y1="174.92" x2="797.76" y2="200.1"/>
            <line class="cls-9" x1="798.34" y1="211.26" x2="807.79" y2="236.44"/>
            <line class="cls-9" x1="753.45" y1="188" x2="762.9" y2="213.19"/>
            <line class="cls-9" x1="763.47" y1="224.34" x2="772.92" y2="249.52"/>
            <line class="cls-9" x1="823.26" y1="161.8" x2="832.71" y2="186.99"/>
            <line class="cls-9" x1="833.28" y1="198.14" x2="842.73" y2="223.32"/>
            <line class="cls-9" x1="962.85" y1="109.41" x2="972.3" y2="134.59"/>
            <line class="cls-9" x1="972.88" y1="145.75" x2="982.33" y2="170.93"/>
            <line class="cls-9" x1="893.08" y1="135.6" x2="902.54" y2="160.78"/>
            <line class="cls-9" x1="903.11" y1="171.93" x2="912.56" y2="197.12"/>
            <line class="cls-9" x1="928.03" y1="122.48" x2="937.48" y2="147.66"/>
            <line class="cls-9" x1="938.05" y1="158.82" x2="947.5" y2="184"/>
            <line class="cls-9" x1="841.47" y1="114.11" x2="850.92" y2="139.29"/>
            <line class="cls-9" x1="771.7" y1="140.29" x2="781.15" y2="165.48"/>
            <line class="cls-9" x1="736.84" y1="153.38" x2="746.29" y2="178.56"/>
            <line class="cls-9" x1="806.65" y1="127.18" x2="816.1" y2="152.36"/>
            <line class="cls-9" x1="946.24" y1="74.79" x2="955.69" y2="99.97"/>
            <line class="cls-9" x1="876.47" y1="100.97" x2="885.92" y2="126.15"/>
            <line class="cls-9" x1="911.42" y1="87.86" x2="920.87" y2="113.04"/>
            <line class="cls-9" x1="884.59" y1="219.36" x2="894.04" y2="244.55"/>
            <line class="cls-9" x1="925.2" y1="239.44" x2="900.02" y2="248.89"/>
            <line class="cls-9" x1="887.71" y1="248.67" x2="862.53" y2="258.12"/>
            <line class="cls-9" x1="855.43" y1="265.62" x2="830.25" y2="275.07"/>
            <line class="cls-9" x1="784.67" y1="292.18" x2="759.49" y2="301.63"/>
            <line class="cls-9" x1="817.95" y1="274.85" x2="792.76" y2="284.3"/>
            <line class="cls-9" x1="995.05" y1="213.22" x2="969.87" y2="222.67"/>
            <line class="cls-9" x1="957.56" y1="222.45" x2="932.38" y2="231.9"/>
            <line class="cls-9" x1="1028.32" y1="195.89" x2="1003.14" y2="205.34"/>
            <line class="cls-9" x1="894.61" y1="255.7" x2="904.06" y2="280.88"/>
            <line class="cls-9" x1="814.82" y1="245.55" x2="824.27" y2="270.73"/>
            <line class="cls-9" x1="824.84" y1="281.89" x2="834.3" y2="307.07"/>
            <line class="cls-9" x1="779.96" y1="258.63" x2="789.41" y2="283.82"/>
            <line class="cls-9" x1="789.98" y1="294.97" x2="799.43" y2="320.15"/>
            <line class="cls-9" x1="849.77" y1="232.43" x2="859.22" y2="257.62"/>
            <line class="cls-9" x1="859.79" y1="268.77" x2="869.24" y2="293.95"/>
            <line class="cls-9" x1="989.36" y1="180.04" x2="998.81" y2="205.22"/>
            <line class="cls-9" x1="999.38" y1="216.38" x2="1008.84" y2="241.56"/>
            <line class="cls-9" x1="919.59" y1="206.23" x2="929.04" y2="231.41"/>
            <line class="cls-9" x1="929.62" y1="242.56" x2="939.07" y2="267.75"/>
            <line class="cls-9" x1="954.54" y1="193.11" x2="963.99" y2="218.29"/>
            <line class="cls-9" x1="964.56" y1="229.45" x2="974.01" y2="254.63"/>
            <line class="cls-9" x1="911.1" y1="289.99" x2="920.55" y2="315.18"/>
            <line class="cls-9" x1="951.71" y1="310.07" x2="926.53" y2="319.52"/>
            <line class="cls-9" x1="914.22" y1="319.3" x2="889.04" y2="328.75"/>
            <line class="cls-9" x1="881.94" y1="336.25" x2="856.76" y2="345.7"/>
            <line class="cls-9" x1="811.18" y1="362.81" x2="786" y2="372.26"/>
            <line class="cls-9" x1="844.45" y1="345.48" x2="819.27" y2="354.93"/>
            <line class="cls-9" x1="1021.56" y1="283.85" x2="996.38" y2="293.3"/>
            <line class="cls-9" x1="984.07" y1="293.08" x2="958.89" y2="302.53"/>
            <line class="cls-9" x1="1054.83" y1="266.52" x2="1029.65" y2="275.97"/>
            <line class="cls-9" x1="921.12" y1="326.33" x2="930.57" y2="351.51"/>
            <line class="cls-9" x1="841.33" y1="316.18" x2="850.78" y2="341.36"/>
            <line class="cls-9" x1="851.35" y1="352.52" x2="860.8" y2="377.7"/>
            <line class="cls-9" x1="806.47" y1="329.26" x2="815.92" y2="354.45"/>
            <line class="cls-9" x1="816.49" y1="365.6" x2="825.94" y2="390.78"/>
            <line class="cls-9" x1="876.27" y1="303.06" x2="885.72" y2="328.25"/>
            <line class="cls-9" x1="886.3" y1="339.4" x2="895.75" y2="364.58"/>
            <line class="cls-9" x1="1015.87" y1="250.67" x2="1025.32" y2="275.85"/>
            <line class="cls-9" x1="1025.89" y1="287.01" x2="1035.34" y2="312.19"/>
            <line class="cls-9" x1="946.1" y1="276.86" x2="955.55" y2="302.04"/>
            <line class="cls-9" x1="956.12" y1="313.19" x2="965.58" y2="338.38"/>
            <line class="cls-9" x1="981.05" y1="263.74" x2="990.5" y2="288.92"/>
            <line class="cls-9" x1="991.07" y1="300.08" x2="1000.52" y2="325.26"/>
            <line class="cls-9" x1="937.69" y1="360.85" x2="947.14" y2="386.03"/>
            <line class="cls-9" x1="867.92" y1="387.03" x2="877.37" y2="412.21"/>
            <line class="cls-9" x1="833.06" y1="400.12" x2="842.51" y2="425.3"/>
            <line class="cls-9" x1="902.87" y1="373.92" x2="912.32" y2="399.1"/>
            <line class="cls-9" x1="1042.46" y1="321.52" x2="1051.91" y2="346.7"/>
            <line class="cls-9" x1="972.69" y1="347.71" x2="982.14" y2="372.89"/>
            <line class="cls-9" x1="1007.64" y1="334.59" x2="1017.09" y2="359.78"/>
            <g>
              <rect class="cls-5" x="928.55" y="350.53" width="11.36" height="11.36" transform="translate(-65.59 350.99) rotate(-20.57)"/>
              <rect class="cls-5" x="893.65" y="363.63" width="11.36" height="11.36" transform="translate(-72.42 339.56) rotate(-20.57)"/>
              <rect class="cls-5" x="858.75" y="376.73" width="11.36" height="11.36" transform="translate(-79.25 328.13) rotate(-20.57)"/>
              <rect class="cls-5" x="823.84" y="389.83" width="11.36" height="11.36" transform="translate(-86.08 316.7) rotate(-20.57)"/>
              <rect class="cls-5" x="963.46" y="337.43" width="11.36" height="11.36" transform="translate(-58.76 362.42) rotate(-20.57)"/>
              <rect class="cls-5" x="998.36" y="324.33" width="11.36" height="11.36" transform="translate(-51.93 373.84) rotate(-20.57)"/>
              <rect class="cls-5" x="1033.26" y="311.23" width="11.36" height="11.36" transform="translate(-45.1 385.27) rotate(-20.57)"/>
            </g>
            <rect class="cls-5" x="915.28" y="315.16" width="11.36" height="11.36" transform="translate(-54.01 344.07) rotate(-20.57)"/>
            <rect class="cls-5" x="880.37" y="328.26" width="11.36" height="11.36" transform="translate(-60.84 332.64) rotate(-20.57)"/>
            <rect class="cls-5" x="845.47" y="341.36" width="11.36" height="11.36" transform="translate(-67.67 321.21) rotate(-20.57)"/>
            <rect class="cls-5" x="810.57" y="354.46" width="11.36" height="11.36" transform="translate(-74.49 309.78) rotate(-20.57)"/>
            <rect class="cls-5" x="950.18" y="302.06" width="11.36" height="11.36" transform="translate(-47.18 355.5) rotate(-20.57)"/>
            <rect class="cls-5" x="985.09" y="288.96" width="11.36" height="11.36" transform="translate(-40.35 366.92) rotate(-20.57)"/>
            <rect class="cls-5" x="1019.99" y="275.86" width="11.36" height="11.36" transform="translate(-33.52 378.35) rotate(-20.57)"/>
            <rect class="cls-5" x="902" y="279.79" width="11.36" height="11.36" transform="translate(-42.43 337.15) rotate(-20.57)"/>
            <rect class="cls-5" x="867.1" y="292.89" width="11.36" height="11.36" transform="translate(-49.25 325.72) rotate(-20.57)"/>
            <rect class="cls-5" x="832.19" y="305.99" width="11.36" height="11.36" transform="translate(-56.08 314.29) rotate(-20.57)"/>
            <rect class="cls-5" x="797.29" y="319.09" width="11.36" height="11.36" transform="translate(-62.91 302.86) rotate(-20.57)"/>
            <rect class="cls-5" x="936.91" y="266.69" width="11.36" height="11.36" transform="translate(-35.6 348.58) rotate(-20.57)"/>
            <rect class="cls-5" x="971.81" y="253.59" width="11.36" height="11.36" transform="translate(-28.77 360) rotate(-20.57)"/>
            <rect class="cls-5" x="1006.71" y="240.49" width="11.36" height="11.36" transform="translate(-21.94 371.43) rotate(-20.57)"/>
            <rect class="cls-5" x="888.73" y="244.41" width="11.36" height="11.36" transform="translate(-30.84 330.23) rotate(-20.57)"/>
            <rect class="cls-5" x="853.82" y="257.51" width="11.36" height="11.36" transform="translate(-37.67 318.8) rotate(-20.57)"/>
            <rect class="cls-5" x="818.92" y="270.61" width="11.36" height="11.36" transform="translate(-44.5 307.37) rotate(-20.57)"/>
            <rect class="cls-5" x="784.02" y="283.71" width="11.36" height="11.36" transform="translate(-51.33 295.94) rotate(-20.57)"/>
            <rect class="cls-5" x="923.63" y="231.32" width="11.36" height="11.36" transform="translate(-24.02 341.65) rotate(-20.57)"/>
            <rect class="cls-5" x="958.54" y="218.22" width="11.36" height="11.36" transform="translate(-17.19 353.08) rotate(-20.57)"/>
            <rect class="cls-5" x="993.44" y="205.11" width="11.36" height="11.36" transform="translate(-10.36 364.51) rotate(-20.57)"/>
            <rect class="cls-5" x="875.45" y="209.04" width="11.36" height="11.36" transform="translate(-19.26 323.31) rotate(-20.57)"/>
            <rect class="cls-5" x="840.55" y="222.14" width="11.36" height="11.36" transform="translate(-26.09 311.88) rotate(-20.57)"/>
            <rect class="cls-5" x="805.64" y="235.24" width="11.36" height="11.36" transform="translate(-32.92 300.45) rotate(-20.57)"/>
            <rect class="cls-5" x="770.74" y="248.34" width="11.36" height="11.36" transform="translate(-39.75 289.02) rotate(-20.57)"/>
            <rect class="cls-5" x="910.36" y="195.94" width="11.36" height="11.36" transform="translate(-12.43 334.73) rotate(-20.57)"/>
            <rect class="cls-5" x="945.26" y="182.84" width="11.36" height="11.36" transform="translate(-5.6 346.16) rotate(-20.57)"/>
            <rect class="cls-5" x="980.16" y="169.74" width="11.36" height="11.36" transform="translate(1.22 357.59) rotate(-20.57)"/>
            <rect class="cls-5" x="862.18" y="173.67" width="11.36" height="11.36" transform="translate(-7.68 316.39) rotate(-20.57)"/>
            <rect class="cls-5" x="827.27" y="186.77" width="11.36" height="11.36" transform="translate(-14.51 304.96) rotate(-20.57)"/>
            <rect class="cls-5" x="792.37" y="199.87" width="11.36" height="11.36" transform="translate(-21.34 293.53) rotate(-20.57)"/>
            <rect class="cls-5" x="757.47" y="212.97" width="11.36" height="11.36" transform="translate(-28.17 282.1) rotate(-20.57)"/>
            <rect class="cls-5" x="897.08" y="160.57" width="11.36" height="11.36" transform="translate(-.85 327.81) rotate(-20.57)"/>
            <rect class="cls-5" x="931.99" y="147.47" width="11.36" height="11.36" transform="translate(5.98 339.24) rotate(-20.57)"/>
            <rect class="cls-5" x="966.89" y="134.37" width="11.36" height="11.36" transform="translate(12.81 350.67) rotate(-20.57)"/>
            <rect class="cls-5" x="848.9" y="138.3" width="11.36" height="11.36" transform="translate(3.9 309.47) rotate(-20.57)"/>
            <rect class="cls-5" x="814" y="151.4" width="11.36" height="11.36" transform="translate(-2.93 298.04) rotate(-20.57)"/>
            <rect class="cls-5" x="779.09" y="164.5" width="11.36" height="11.36" transform="translate(-9.76 286.61) rotate(-20.57)"/>
            <rect class="cls-5" x="744.19" y="177.6" width="11.36" height="11.36" transform="translate(-16.58 275.18) rotate(-20.57)"/>
            <rect class="cls-5" x="883.81" y="125.2" width="11.36" height="11.36" transform="translate(10.73 320.89) rotate(-20.57)"/>
            <rect class="cls-5" x="918.71" y="112.1" width="11.36" height="11.36" transform="translate(17.56 332.32) rotate(-20.57)"/>
            <rect class="cls-5" x="953.61" y="99" width="11.36" height="11.36" transform="translate(24.39 343.75) rotate(-20.57)"/>
          </g>
        </g>
      </g>
    </g>
    <path class="cls-4" d="M280.17,387.41c-14.01-.88-26.27-2.19-38.53-2.19s-24.96,1.31-37.21,2.19c-9.19-29.77-19.26-59.98-30.21-89.75-18.83-.44-37.21-.88-56.04-.88-15.32,0-30.21.44-45.53.88-11.82,29.77-21.45,59.54-29.77,89.75-7-.88-13.57-2.19-20.58-2.19s-13.57,1.31-21.89,2.19c21.45-48.6,87.12-204.46,124.77-304.27,5.69.88,10.94,2.19,16.64,2.19s10.95-1.31,16.64-2.19c37.21,99.82,88.44,232.91,121.71,304.27ZM173.45,279.84c-13.7-35.46-34.25-93.18-48.26-127.33-14.89,34.15-33.04,91.87-46.74,127.33l47.5-28,47.5,28Z"/>
    <path class="cls-4" d="M587.95,150.56c-18.39-26.27-46.41-43.78-86.25-43.78-54.29,0-110.33,45.09-110.33,137.03,0,69.61,38.96,122.15,106.39,122.15,14.89,0,40.72-3.06,47.72-7.88,1.31-7,1.31-17.95,1.31-30.65,0-47.28-2.63-66.98-3.06-75.3,5.69.88,14.45,2.19,32.4,2.19,21.01,0,29.77-1.31,35.46-2.19-2.19,9.19-3.5,45.53-3.5,73.55,0,18.39.44,41.59,1.31,48.16-38.09,10.95-78.37,19.26-116.89,19.26-100.7,0-172.93-57.35-172.93-146.67,0-111.2,78.37-166.8,181.25-166.8,44.22,0,73.99,9.63,105.51,26.27-4.82,14.89-9.63,29.77-12.26,44.66h-6.13Z"/>
    <path class="cls-4" d="M1249.99,248.19h-3.94v17.95c0,49.03.88,82.75,3.5,121.27-9.63-.88-21.45-2.19-35.9-2.19s-26.27,1.31-35.9,2.19c2.63-38.53,3.5-72.24,3.5-121.27v-59.54c0-49.03-.88-82.75-3.5-121.27,9.63.88,21.45,2.19,35.9,2.19,15.76,0,34.59-2.19,64.36-2.19,44.22,0,60.42,3.94,75.74,14.89,17.51,12.7,28.46,31.96,28.46,57.79,0,42.47-24.52,69.61-67.86,80.56,28.02,49.47,61.29,99.38,93.25,148.85-13.13-.88-26.27-2.19-39.4-2.19s-26.71,1.31-39.84,2.19l-78.37-139.22ZM1247.36,110.28c-.88,39.84-1.31,79.24-1.31,119.08,3.5.44,6.57.88,9.63.88,38.53,0,59.54-21.45,59.54-62.61,0-51.66-20.14-57.35-67.86-57.35Z"/>
    <path class="cls-4" d="M1725.44,387.41c-14.01-.88-26.27-2.19-38.53-2.19s-24.96,1.31-37.21,2.19c-9.19-29.77-19.26-59.98-30.21-89.75-18.83-.44-37.21-.88-56.04-.88-15.32,0-30.21.44-45.53.88-11.82,29.77-21.45,59.54-29.77,89.75-7-.88-13.57-2.19-20.58-2.19s-13.57,1.31-21.89,2.19c21.45-48.6,87.12-204.46,124.77-304.27,5.69.88,10.94,2.19,16.64,2.19s10.95-1.31,16.64-2.19c37.21,99.82,88.44,232.91,121.71,304.27ZM1618.72,279.84c-13.7-35.46-34.25-93.18-48.26-127.33-14.89,34.15-33.04,91.87-46.74,127.33l47.5-28,47.5,28Z"/>
    <g>
      <text class="cls-7" transform="translate(0 531.83)"><tspan class="cls-24" x="0" y="0">A</tspan><tspan class="cls-21" x="27.23" y="0">C</tspan><tspan class="cls-25" x="57.51" y="0">CELE</tspan><tspan class="cls-30" x="155.71" y="0">R</tspan><tspan class="cls-26" x="185.99" y="0">A</tspan><tspan class="cls-27" x="212.35" y="0">TING</tspan></text>
      <text class="cls-7" transform="translate(340.75 531.83)"><tspan class="cls-25" x="0" y="0">G</tspan><tspan class="cls-28" x="34.25" y="0">R</tspan><tspan class="cls-21" x="62.56" y="0">O</tspan><tspan class="cls-25" x="100.12" y="0">WTH</tspan></text>
      <text class="cls-7" transform="translate(562.92 531.83)"><tspan class="cls-25" x="0" y="0">TH</tspan><tspan class="cls-28" x="58.82" y="0">R</tspan><tspan class="cls-29" x="87.14" y="0">O</tspan><tspan class="cls-27" x="125.78" y="0">UGH</tspan></text>
      <text class="cls-7" transform="translate(811.16 531.83)"><tspan class="cls-29" x="0" y="0">O</tspan><tspan class="cls-25" x="38.65" y="0">NE</tspan></text>
      <text class="cls-7" transform="translate(926.66 531.83)"><tspan class="cls-25" x="0" y="0">RESEA</tspan><tspan class="cls-22" x="127.66" y="0">R</tspan><tspan class="cls-25" x="156.19" y="0">CH</tspan></text>
      <text class="cls-6" transform="translate(1169.66 531.83)"><tspan x="0" y="0">&amp;</tspan></text>
      <text class="cls-7" transform="translate(1222.33 531.83)"><tspan class="cls-17" x="0" y="0">EXTENSI</tspan><tspan class="cls-20" x="168.87" y="0">O</tspan><tspan class="cls-15" x="207.43" y="0">N</tspan></text>
      <text class="cls-3" transform="translate(1484.33 531.83)"><tspan x="0" y="0">IN</tspan></text>
      <text class="cls-7" transform="translate(1553.83 531.83)"><tspan class="cls-24" x="0" y="0">A</tspan><tspan class="cls-25" x="27.23" y="0">CTI</tspan><tspan class="cls-19" x="98.46" y="0">O</tspan><tspan class="cls-25" x="137.11" y="0">N</tspan></text>
    </g>
  </g>
</svg>